<svg width="218" height="44" viewBox="0 0 218 44" fill="none" xmlns="http://www.w3.org/2000/svg">
<path d="M19.3467 21.7321C19.3789 21.6922 19.411 21.6527 19.4427 21.6132C21.4184 19.1642 23.3932 16.7137 25.3728 14.268C27.825 11.2381 27.7751 11.3256 24.3523 9.28811C22.4274 8.14209 21.3052 8.24485 19.84 10.1711C18.0676 12.5002 16.2478 14.7937 14.4107 17.0743C13.7827 16.7385 13.1542 16.5196 12.5156 16.4188C12.5401 15.218 12.5698 14.0178 12.614 12.818C12.7032 10.4065 11.7585 9.62826 9.16001 9.32189C4.53971 8.77718 4.55842 8.67776 4.5517 12.5625C4.54595 15.699 4.53251 18.835 4.52052 21.9714C4.51092 24.566 4.50229 27.1602 4.49365 29.7548C4.48981 30.8846 4.48693 32.0145 4.48166 33.1443C4.47878 33.8532 4.40297 34.5082 4.17891 35.0886C3.809 36.0467 3.03463 36.8027 1.50941 37.2636C-1.44653 38.157 0.86506 40.039 0.782537 41.4448C0.709131 42.6955 1.57706 43.1517 3.26157 43.038C9.70408 42.6022 12.3602 40.3768 12.4216 34.8674C12.4388 33.3394 12.4441 31.8109 12.446 30.2824C13.3044 29.2177 14.1637 28.154 15.0229 27.0898C16.9963 29.329 18.9682 31.5692 20.9415 33.8084C23.0228 36.1699 25.1056 38.5305 27.183 40.8958C29.7561 43.8253 29.6784 43.7606 32.3066 40.7811C33.7848 39.1056 33.8813 37.9924 32.2289 36.2213C27.8211 31.4959 23.6226 26.5793 19.3467 21.7321Z" fill="#000F27"/>
<path d="M143.112 10.7115C142.847 10.613 142.588 10.5212 142.344 10.4123C142.218 8.83427 140.89 7.59215 139.266 7.59215C138.944 7.59215 138.633 7.64115 138.341 7.73202C138.192 7.55933 138.059 7.35762 137.92 7.14069C131.892 -2.29247 117.65 -2.40142 111.511 6.94469C111.372 7.15686 111.241 7.3581 111.1 7.5384C110.837 7.46751 110.561 7.42612 110.275 7.42612C108.604 7.42612 107.242 8.7182 107.139 10.3485C106.988 10.4146 106.826 10.4727 106.654 10.5302C102.392 11.9531 99.4746 15.7133 99.2808 19.9634C99.1844 22.078 99.6661 24.1032 100.63 25.8248C99.5197 29.1901 99.4406 32.651 100.624 36.1262C101.97 40.0828 104.767 42.3986 108.816 43.3758C112.682 44.3091 116.447 43.4785 120.263 42.9909C121.471 42.8363 122.081 42.4581 122.368 41.7678C122.448 41.5747 122.502 41.3558 122.538 41.1118C122.58 40.8211 122.597 40.4948 122.594 40.1256C122.549 33.0834 122.587 26.0408 122.618 18.9982C122.623 17.9363 122.627 16.875 122.631 15.8132C122.635 14.9992 122.639 14.1848 122.641 13.3708C122.655 9.15682 122.666 9.24102 118.355 9.91274C116.419 10.2144 115.386 10.7505 115.668 12.9902C115.923 15.0054 115.71 17.0781 115.704 18.9872C114.753 19.3654 114.166 18.8635 113.502 18.7189C108.59 17.6457 104.242 19.2427 101.912 22.9671C101.696 22.1979 101.589 21.3711 101.603 20.4824C101.663 16.9102 103.508 14.3084 106.811 12.7985C107.142 12.6472 107.467 12.5192 107.797 12.4626C108.373 13.1929 109.267 13.6643 110.275 13.6643C112.013 13.6643 113.421 12.2676 113.421 10.545C113.421 9.95603 113.253 9.40705 112.967 8.93751C113.055 8.76291 113.16 8.59498 113.274 8.42658C116.034 4.34485 119.872 2.18886 124.648 2.09705C129.803 2.18125 133.606 4.32202 136.379 8.32953C136.512 8.52172 136.629 8.71391 136.726 8.91229C136.38 9.40752 136.176 10.0079 136.176 10.6563C136.176 12.3485 137.559 13.7205 139.266 13.7205C140.297 13.7205 141.208 13.2176 141.769 12.4474C141.988 12.4779 142.208 12.544 142.442 12.6287C145.757 13.8227 148.098 16.8455 148.119 20.3697C148.128 21.8263 147.846 23.1336 147.291 24.2858C146.753 23.2335 146.086 22.2964 145.298 21.5338C144.15 20.4225 142.774 19.7246 141.249 19.1941C138.057 18.0838 135.051 19.0733 131.811 20.01C131.823 16.3655 131.834 12.9545 131.845 9.66013C128.198 9.05834 127.433 10.6573 127.539 13.8803C127.561 14.5249 127.575 15.1695 127.589 15.8136C127.614 16.9164 127.634 18.0191 127.643 19.1223C127.687 24.5337 127.569 29.9503 127.552 35.3636C127.544 37.952 127.589 39.7588 127.925 41.0204C127.998 41.2949 128.086 41.5428 128.189 41.7678C129.097 43.7483 131.265 43.9086 136.385 43.8658C136.484 43.8648 136.583 43.8696 136.682 43.8643C141.678 43.6136 145.726 41.813 147.763 36.953C149.12 33.7152 149.19 29.8347 148.198 26.5493C149.359 24.8634 150.024 22.8453 150.042 20.6989C150.08 16.2009 147.39 12.299 143.112 10.7115ZM108.118 26.0398C109.013 24.8291 110.125 24.4129 111.321 24.3453C112.205 24.2954 113.135 24.4362 114.055 24.5894C116.223 24.9509 115.641 26.6821 115.672 28.0669C115.698 29.241 115.671 30.4165 115.667 31.5911C115.664 32.3741 115.802 33.19 115.628 33.9336C115.324 35.2347 116.658 37.188 114.665 37.7627C114.286 37.8721 113.905 37.9496 113.524 37.9958C111.765 38.2094 110.026 37.7232 108.666 36.2675C107.531 35.0525 106.923 32.9217 106.889 30.8195C106.876 30.0183 106.946 29.222 107.103 28.4817C107.301 27.5412 107.637 26.6911 108.118 26.0398ZM143.02 36.5496C141.22 39.5766 137.062 40.8815 133.044 39.8064C132.914 39.7712 132.798 39.7307 132.693 39.686C131.856 39.3307 131.798 38.6794 131.809 37.8502C131.835 35.7975 131.828 33.7437 131.834 31.691C131.836 30.5178 131.805 29.3433 131.851 28.1716C131.928 26.2354 131.204 24.0803 134.072 23.1764C134.965 22.8948 135.887 22.7293 136.791 22.6855C138.85 22.5856 140.806 23.1236 142.07 24.4076C142.899 25.2492 143.505 26.4856 143.873 27.8866C144.051 28.5636 144.174 29.2786 144.238 30.0069C144.445 32.3365 144.062 34.798 143.02 36.5496Z" fill="#000F27"/>
<path d="M60.467 18.2027C53.2362 18.1461 48.352 23.2307 48.3501 30.8176C48.3481 38.4734 53.0989 43.6217 60.2415 43.704C67.4012 43.7863 72.2782 38.6818 72.3392 31.0407C72.4006 23.3729 67.6718 18.2593 60.467 18.2027ZM64.5677 34.6947C63.7947 36.5448 62.4681 37.7808 60.3321 37.7451C58.2441 37.7103 56.8288 36.61 56.0942 34.6909C55.1505 32.2262 55.1471 29.6939 56.0275 27.252C56.6916 25.41 58.0191 24.1802 60.2074 24.1441C62.4936 24.1065 63.8868 25.2254 64.6641 27.2539C65.1242 28.4546 65.3348 29.6963 65.2019 30.9826C65.3651 32.2828 65.0585 33.5202 64.5677 34.6947Z" fill="#000F27"/>
<path d="M91.898 18.9116C89.7423 18.8298 89.5379 19.6752 89.5686 21.4063C89.6473 25.8201 89.5691 30.2367 89.5523 34.6524C89.5408 37.7052 88.717 38.355 85.6838 37.747C83.2782 37.2646 82.5585 35.5021 82.4947 33.4136C82.3964 30.1787 82.4467 26.939 82.4525 23.7012C82.4607 18.7718 82.4678 18.8365 77.422 18.8835C75.9121 18.8978 75.3407 19.2299 75.3762 20.8259C75.4702 25.0428 75.2553 29.2686 75.4141 33.4817C75.6746 40.3906 79.1094 43.6165 86.0816 43.685C88.9531 43.7131 91.7785 43.2293 94.614 42.784C96.3168 42.5166 96.6569 41.7345 96.6185 40.2265C96.5384 37.0891 96.6113 33.9474 96.6176 30.8076C96.6214 28.4528 96.6281 26.0979 96.6363 23.7426C96.6536 18.9454 96.6483 19.0914 91.898 18.9116Z" fill="#000F27"/>
<path d="M160.37 18.9872C153.731 20.5781 150.529 26.5617 151.914 34.7918C152.942 40.9044 158.146 44.5551 164.985 43.931C166.163 43.8234 167.361 43.7069 168.494 43.3958C169.698 43.0656 171.293 43.1641 170.79 40.9053C170.3 38.7003 169.23 39.4092 167.861 39.7332C161.784 41.1727 157.612 39.2175 156.383 34.563C155.997 33.0973 156.1 32.3689 157.905 32.4755C160.073 32.6034 162.253 32.5178 164.427 32.5211C166.601 32.5245 168.776 32.5525 170.95 32.5264C171.673 32.5178 172.441 32.7495 172.749 31.5792C174.642 24.3829 167.656 17.2413 160.37 18.9872ZM165.874 29.1402C164.718 28.9827 163.524 29.1059 162.346 29.104C161.071 29.1016 159.782 28.9765 158.524 29.1188C155.878 29.418 156.114 28.0679 156.85 26.4133C157.979 23.8739 159.89 22.3801 162.767 22.4443C165.495 22.5052 167.049 24.1764 167.852 26.5651C168.409 28.223 168.188 29.4556 165.874 29.1402Z" fill="#000F27"/>
<path d="M194.061 34.4597C194.068 32.6953 194.076 30.9308 194.079 29.1658C194.095 21.4363 191.023 18.5029 183.211 18.8635C181.939 18.922 180.683 19.2874 179.409 19.383C177.559 19.5219 177.969 20.6608 178.005 21.8844C178.06 23.7754 179.065 23.1565 180.133 22.979C181.588 22.7374 183.081 22.5366 184.548 22.5856C187.878 22.6965 189.613 24.5113 189.796 27.7377C189.869 29.0317 189.601 29.4851 188.132 29.1268C185.389 28.4575 182.618 28.7315 179.968 29.6749C176.494 30.9113 174.826 33.6067 175.17 37.1947C175.494 40.5785 177.642 42.8258 181.126 43.5775C184.688 44.3463 188.211 43.6289 191.75 43.4357C193.542 43.3377 194.246 42.4895 194.082 40.6313C193.901 38.5895 194.053 36.5182 194.061 34.4597ZM189.788 36.473C189.772 40.2412 189.772 40.2412 185.588 40.2598C181.424 40.2783 179.559 39.0234 179.623 36.2451C179.684 33.5739 181.784 32.3113 186.096 32.3527C189.802 32.3884 189.806 32.3922 189.788 36.473Z" fill="#000F27"/>
<path d="M217.396 26.0684C216.695 22.1636 214.612 20.1156 210.665 19.2779C207.094 18.52 203.613 19.2879 200.096 19.785C198.516 20.0081 198.252 20.7364 198.279 22.0956C198.342 25.3291 198.282 28.565 198.271 31.7999C198.26 35.0348 198.346 38.2741 198.201 41.5028C198.122 43.2616 198.824 43.5698 200.415 43.5965C202.106 43.6245 202.587 43.1022 202.562 41.4472C202.482 36.1552 202.546 30.8608 202.599 25.5674C202.607 24.7506 202.214 23.7763 203.216 23.1812C207.13 20.8568 212.942 23.7349 213.182 28.2838C213.42 32.7799 213.369 37.2936 213.343 41.7987C213.335 43.2292 213.854 43.8048 215.243 43.5846C216.251 43.4247 217.872 44.2644 217.807 42.2055C217.635 36.8269 218.356 31.4212 217.396 26.0684Z" fill="#000F27"/>
<path d="M45.2761 37.5786C43.1838 36.8241 42.752 35.3203 42.7563 33.4422C42.7644 29.7177 42.7788 25.9933 42.7894 22.2693C42.798 19.1328 42.8047 15.9968 42.8187 12.8604C42.8359 8.97561 42.8513 9.07504 38.8936 9.5931C36.6674 9.88425 35.8541 10.6573 35.9165 13.0692C36.106 20.4149 35.9237 27.7687 35.9506 35.1196C35.9707 40.6294 38.2305 42.8701 43.7422 43.3435C45.1835 43.4671 45.9291 43.0162 45.8739 41.765C45.8111 40.3578 47.8012 38.4892 45.2761 37.5786Z" fill="#000F27"/>
</svg>
